<svg width="231" height="87" viewBox="0 0 231 87" fill="none" xmlns="http://www.w3.org/2000/svg">
<g clip-path="url(#clip0_11_7)">
<path d="M0.578064 19.5166C0.578064 6.50674 8.43325 0 19.9873 0C31.5414 0 39.3059 6.59757 39.3059 19.6074H29.6466C29.6466 12.1089 25.7662 9.03533 19.9873 9.03533C14.2085 9.03533 10.3281 12.1961 10.3281 19.5166V26.9243H33.9807V35.778H10.3281V65.7541H0.578064V19.5166ZM42.7325 0.0181651H52.4825V65.7722H42.7325V0.0181651ZM112.199 46.6153V21.3331H121.803V46.6117C121.803 54.2665 125.807 57.5616 131.408 57.5616C137.009 57.5616 141.104 54.0884 141.104 46.6117V21.3331H150.709V46.6117C150.709 54.0884 154.712 57.5616 160.226 57.5616C165.74 57.5616 169.831 54.2665 169.831 46.6117V21.3331H179.436V46.6117C179.436 60.2319 171.519 66.4625 161.116 66.4625C154.357 66.4625 148.93 63.6142 145.819 58.1829C142.705 63.6142 137.191 66.4625 130.523 66.4625C120.115 66.4625 112.202 60.2319 112.202 46.6117L112.199 46.6153ZM186.002 70.7531L195.723 70.7241C197.618 75.3889 202.504 78.4043 208.37 78.4043C216.135 78.4043 220.828 74.655 220.828 65.2346V59.1057C218.12 64.4099 213.064 67.2473 206.835 67.2473C196.181 67.2473 186.522 60.3881 186.522 44.381V21.3331H196.272V44.381C196.272 53.5253 201.147 58.0085 208.548 58.0085C215.949 58.0085 220.824 53.3437 220.824 44.381V21.3331H230.574V64.9585C230.574 80.6894 220.734 87 208.366 87C197.985 87 188.525 81.2671 185.999 70.7531H186.002ZM61.325 42.3029C61.3214 42.3937 61.3214 42.4846 61.3178 42.5754L61.325 42.3029ZM61.3287 42.2412C61.2452 43.5018 61.6191 45.064 62.1527 46.2012L62.1418 46.2084C62.1563 46.2266 62.1672 46.2484 62.1744 46.2702H62.1817C62.2216 46.3428 62.2579 46.4191 62.3015 46.4918L62.2942 46.4991C62.2942 46.4991 62.3124 46.5281 62.3196 46.5427H62.3269C62.8569 47.4909 63.5792 48.3156 64.4359 48.9695C64.4359 48.9695 64.4613 48.9877 64.4722 48.9986C64.5484 49.0531 64.6247 49.1112 64.7045 49.1657C64.7263 49.1766 64.7408 49.1911 64.7553 49.2057C78.952 57.6706 81.9612 25.987 93.4282 24.1233C80.0192 16.7519 61.9312 26.9207 61.3214 42.2412H61.3287ZM94.2377 35.1386C94.6842 43.3274 99.6499 57.0385 93.1233 63.716C104.383 58.4844 109.015 43.371 102.489 32.6972C100.452 28.5483 93.7513 30.4593 94.2304 35.0768M95.0689 25.9253C91.0651 25.7436 88.5786 29.8235 86.7382 32.8171C88.6694 32.3375 90.8219 32.8244 92.3465 34.0778C92.6804 30.6772 95.853 28.0687 99.3087 28.4865C98.1399 27.2985 96.8657 25.9144 95.0689 25.9253ZM76.1243 49.7833C74.2621 51.5853 71.6885 52.5844 69.1149 52.5226C69.0895 52.5299 69.0677 52.5262 69.0459 52.5226C66.3743 52.4136 63.7027 51.2729 61.9312 49.2456C64.1963 64.4862 92.9091 75.2399 94.6624 54.4408C90.0705 62.9094 76.1715 59.4762 76.1243 49.7833Z" fill="white"/>
</g>
<defs>
<clipPath id="clip0_11_7">
<rect width="230" height="87" fill="white" transform="translate(0.578064)"/>
</clipPath>
</defs>
</svg>
