<svg width="160" height="60" viewBox="0 0 160 60" fill="none" xmlns="http://www.w3.org/2000/svg">
<g clip-path="url(#clip0_2027_31)">
<path d="M0 13.4597C0 4.48741 5.46447 0 13.5021 0C21.5397 0 26.9411 4.55005 26.9411 13.5224H20.2216C20.2216 8.35094 17.5222 6.23126 13.5021 6.23126C9.48202 6.23126 6.78261 8.41108 6.78261 13.4597V18.5685H23.2366V24.6745H6.78261V45.3476H0V13.4597ZM29.3248 0.0125277H36.1074V45.3602H29.3248V0.0125277ZM77.6491 32.1485V14.7125H84.3307V32.146C84.3307 37.4251 87.1159 39.6977 91.0123 39.6977C94.9086 39.6977 97.757 37.3024 97.757 32.146V14.7125H104.439V32.146C104.439 37.3024 107.224 39.6977 111.06 39.6977C114.895 39.6977 117.741 37.4251 117.741 32.146V14.7125H124.423V32.146C124.423 41.5392 118.915 45.8362 111.678 45.8362C106.976 45.8362 103.201 43.8719 101.037 40.1261C98.8706 43.8719 95.0349 45.8362 90.3961 45.8362C83.1565 45.8362 77.6516 41.5392 77.6516 32.146L77.6491 32.1485ZM128.991 48.7953L135.753 48.7752C137.071 51.9923 140.47 54.0719 144.551 54.0719C149.952 54.0719 153.217 51.4862 153.217 44.9893V40.7625C151.334 44.4206 147.816 46.3774 143.483 46.3774C136.071 46.3774 129.352 41.647 129.352 30.6076V14.7125H136.135V30.6076C136.135 36.914 139.526 40.0058 144.675 40.0058C149.824 40.0058 153.215 36.7887 153.215 30.6076V14.7125H159.997V44.7989C159.997 55.6479 153.152 60 144.548 60C137.326 60 130.746 56.0463 128.988 48.7953H128.991ZM42.2588 29.1744C42.2562 29.2371 42.2562 29.2997 42.2537 29.3623L42.2588 29.1744ZM42.2613 29.1318C42.2032 30.0013 42.4633 31.0786 42.8345 31.8629L42.8269 31.8679C42.837 31.8804 42.8446 31.8954 42.8497 31.9105H42.8547C42.8825 31.9606 42.9077 32.0132 42.938 32.0633L42.933 32.0683C42.933 32.0683 42.9456 32.0884 42.9507 32.0984H42.9557C43.3244 32.7523 43.8269 33.3211 44.4228 33.7721C44.4228 33.7721 44.4405 33.7846 44.4481 33.7921C44.5011 33.8297 44.5541 33.8698 44.6097 33.9074C44.6249 33.9149 44.635 33.9249 44.6451 33.9349C54.521 39.7728 56.6144 17.9221 64.5914 16.6367C55.2634 11.553 42.6805 18.566 42.2562 29.1318H42.2613ZM65.1545 24.2335C65.4651 29.881 68.9195 39.3369 64.3793 43.942C72.2124 40.3341 75.4345 29.9111 70.8942 22.5498C69.4776 19.6885 64.8161 21.0064 65.1495 24.1909M65.7328 17.8795C62.9475 17.7542 61.2178 20.5679 59.9375 22.6325C61.2809 22.3018 62.7783 22.6375 63.8389 23.5019C64.0712 21.1567 66.2782 19.3577 68.6822 19.6459C67.8691 18.8266 66.9827 17.872 65.7328 17.8795ZM52.5539 34.3333C51.2585 35.5761 49.4681 36.2651 47.6778 36.2225C47.6601 36.2275 47.645 36.225 47.6298 36.2225C45.7713 36.1473 43.9128 35.3606 42.6805 33.9625C44.2562 44.4732 64.2303 51.8896 65.45 37.5454C62.2556 43.3858 52.5867 41.0181 52.5539 34.3333Z" fill="white"/>
</g>
<defs>
<clipPath id="clip0_2027_31">
<rect width="160" height="60" fill="white"/>
</clipPath>
</defs>
</svg>
